<svg width="16" height="17" viewBox="0 0 16 17" fill="none" xmlns="http://www.w3.org/2000/svg">
<path d="M9.46586 8.01216L15.696 1.78189C16.1014 1.37664 16.1014 0.7214 15.696 0.316147C15.2907 -0.0891063 14.6355 -0.0891063 14.2302 0.316147L7.99992 6.54642L1.76983 0.316147C1.36439 -0.0891063 0.709337 -0.0891063 0.304083 0.316147C-0.101361 0.7214 -0.101361 1.37664 0.304083 1.78189L6.53417 8.01216L0.304083 14.2424C-0.101361 14.6477 -0.101361 15.3029 0.304083 15.7082C0.506046 15.9103 0.771596 16.0119 1.03696 16.0119C1.30232 16.0119 1.56768 15.9103 1.76983 15.7082L7.99992 9.47791L14.2302 15.7082C14.4324 15.9103 14.6977 16.0119 14.9631 16.0119C15.2284 16.0119 15.4938 15.9103 15.696 15.7082C16.1014 15.3029 16.1014 14.6477 15.696 14.2424L9.46586 8.01216Z" fill="black"/>
</svg>
